<svg width="25" height="25" viewBox="0 0 25 25" fill="none" xmlns="http://www.w3.org/2000/svg">
<g clip-path="url(#clip0_64_252)">
<path d="M8.86062 0.861393C6.46265 1.69327 4.39464 3.2722 2.96036 5.36627C1.52607 7.46034 0.801106 9.95916 0.891952 12.4957C0.982797 15.0322 1.88466 17.4728 3.46508 19.4589C5.0455 21.445 7.22116 22.8719 9.6725 23.5301C11.6599 24.0429 13.742 24.0655 15.74 23.5958C17.55 23.1892 19.2233 22.3196 20.5962 21.072C22.0251 19.7339 23.0623 18.0317 23.5962 16.1483C24.1766 14.1001 24.2799 11.9463 23.8981 9.85202H12.7381V14.4814H19.2012C19.0721 15.2197 18.7953 15.9244 18.3874 16.5533C17.9795 17.1822 17.449 17.7223 16.8275 18.1414C16.0383 18.6635 15.1486 19.0147 14.2156 19.1726C13.2799 19.3466 12.3201 19.3466 11.3844 19.1726C10.436 18.9766 9.53881 18.5851 8.75 18.0233C7.48278 17.1262 6.53127 15.8519 6.03125 14.382C5.52277 12.8846 5.52277 11.2613 6.03125 9.76389C6.38717 8.7143 6.97556 7.75865 7.7525 6.96827C8.64161 6.04717 9.76725 5.38876 11.0059 5.06529C12.2446 4.74181 13.5484 4.76576 14.7744 5.13452C15.7321 5.4285 16.6078 5.94215 17.3319 6.63452C18.0606 5.90952 18.7881 5.18264 19.5144 4.45389C19.8894 4.06202 20.2981 3.68889 20.6675 3.28764C19.5623 2.25916 18.265 1.45887 16.85 0.932643C14.2732 -0.00300111 11.4537 -0.0281457 8.86062 0.861393Z" fill="white"/>
<path d="M8.86063 0.861389C11.4535 -0.0287546 14.273 -0.00427189 16.85 0.930764C18.2653 1.46057 19.562 2.26471 20.6656 3.29701C20.2906 3.69826 19.895 4.07326 19.5125 4.46326C18.785 5.18951 18.0581 5.91326 17.3319 6.63451C16.6078 5.94215 15.7321 5.4285 14.7744 5.13451C13.5488 4.76447 12.245 4.73913 11.006 5.06128C9.76704 5.38343 8.64071 6.04063 7.75063 6.96076C6.97369 7.75114 6.3853 8.70679 6.02938 9.75639L2.1425 6.74701C3.53377 3.98807 5.94266 1.87768 8.86063 0.861389Z" fill="#E33629"/>
<path d="M1.11125 9.72826C1.32016 8.69287 1.66701 7.69018 2.1425 6.74701L6.02937 9.76388C5.5209 11.2613 5.5209 12.8846 6.02937 14.382C4.73437 15.382 3.43875 16.387 2.1425 17.397C0.952156 15.0276 0.589122 12.328 1.11125 9.72826Z" fill="#F8BD00"/>
<path d="M12.7381 9.85016H23.8981C24.2799 11.9444 24.1766 14.0983 23.5962 16.1464C23.0623 18.0298 22.0251 19.7321 20.5962 21.0702C19.3419 20.0914 18.0819 19.1202 16.8275 18.1414C17.4494 17.7219 17.9802 17.1812 18.3881 16.5517C18.796 15.9221 19.0725 15.2167 19.2012 14.4777H12.7381C12.7362 12.9364 12.7381 11.3933 12.7381 9.85016Z" fill="#587DBD"/>
<path d="M2.14062 17.397C3.43687 16.397 4.7325 15.392 6.0275 14.382C6.52851 15.8524 7.48138 17.1268 8.75 18.0233C9.54127 18.5825 10.4404 18.9708 11.39 19.1633C12.3257 19.3373 13.2855 19.3373 14.2213 19.1633C15.1542 19.0053 16.0439 18.6541 16.8331 18.132C18.0875 19.1108 19.3475 20.082 20.6019 21.0608C19.2292 22.309 17.5558 23.1793 15.7456 23.5864C13.7476 24.0561 11.6655 24.0336 9.67813 23.5208C8.10632 23.1011 6.63814 22.3613 5.36563 21.3476C4.01874 20.2783 2.91867 18.9307 2.14062 17.397Z" fill="#319F43"/>
</g>
<defs>
<clipPath id="clip0_64_252">
<rect width="24" height="24" fill="white" transform="translate(0.5 0.0720215)"/>
</clipPath>
</defs>
</svg>
