<svg width="25" height="25" viewBox="0 0 25 25" fill="none" xmlns="http://www.w3.org/2000/svg">
<g clip-path="url(#clip0_64_259)">
<path d="M22.3719 0.977661H2.63C1.9538 0.977661 1.40563 1.52583 1.40563 2.20204V21.9439C1.40563 22.6201 1.9538 23.1683 2.63 23.1683H22.3719C23.0481 23.1683 23.5962 22.6201 23.5962 21.9439V2.20204C23.5962 1.52583 23.0481 0.977661 22.3719 0.977661Z" fill="#3D5A98"/>
<path d="M16.715 23.1664V14.5733H19.5988L20.03 11.2245H16.715V9.087C16.715 8.11763 16.985 7.45575 18.3744 7.45575H20.1481V4.45575C19.2892 4.3664 18.426 4.32384 17.5625 4.32825C15.0088 4.32825 13.25 5.8845 13.25 8.75513V11.2245H10.3663V14.5733H13.25V23.1664H16.715Z" fill="white"/>
</g>
<defs>
<clipPath id="clip0_64_259">
<rect width="24" height="24" fill="white" transform="translate(0.5 0.0720215)"/>
</clipPath>
</defs>
</svg>
