<svg width="133" height="44" viewBox="0 0 133 44" fill="none" xmlns="http://www.w3.org/2000/svg">
<path d="M31.5429 43.072H19.6389L13.5589 31.104C12.9616 29.8667 12.1723 29.0773 11.1909 28.736V43.072H0.246948V4.672L11.1909 4.224V26.048C12.2149 25.6213 13.0896 24.7467 13.8149 23.424L19.2549 13.632L31.2229 13.568L25.0149 23.552C24.0336 25.1307 22.9669 26.3893 21.8149 27.328C22.7963 28.3947 23.9056 30.016 25.1429 32.192L31.5429 43.072Z" fill="#FAFAFA"/>
<path d="M92.2336 9.984C90.7829 9.984 89.5242 9.49333 88.4576 8.512C87.4336 7.53067 86.9215 6.35733 86.9215 4.992C86.9215 3.62667 87.4336 2.45333 88.4576 1.472C89.5242 0.490667 90.7829 0 92.2336 0C93.6842 0 94.9215 0.490667 95.9455 1.472C96.9695 2.45333 97.4816 3.62667 97.4816 4.992C97.4816 6.35733 96.9695 7.53067 95.9455 8.512C94.9215 9.49333 93.6842 9.984 92.2336 9.984ZM97.6736 43.072H86.7296V19.904H76.9375V43.072H65.9935V19.904H61.1935V14.208L65.9935 13.632V12.672C65.9935 10.7947 66.2496 9.00267 66.7616 7.296C67.2736 5.58933 67.7429 4.56533 68.1695 4.224C69.4922 3.11467 72.3082 2.56 76.6175 2.56C78.9642 2.56 81.5882 2.73067 84.4895 3.072C84.4895 3.584 84.4042 4.608 84.2336 6.144C84.1056 7.68 83.9775 8.98133 83.8495 10.048L81.0975 9.984C78.8362 9.984 77.5989 10.0907 77.3855 10.304C77.0869 10.6027 76.9375 11.52 76.9375 13.056V13.632H97.6736V43.072Z" fill="#FAFAFA"/>
<path d="M131.601 15.488C131.985 15.9573 132.262 17.1307 132.433 19.008C132.646 20.8853 132.753 23.744 132.753 27.584V43.072H121.809V25.088C121.809 23.7227 121.702 22.8693 121.489 22.528C121.148 22.1013 120.358 21.888 119.121 21.888C118.524 21.888 118.076 21.9093 117.777 21.952C116.582 21.9947 115.345 22.272 114.065 22.784V43.072H103.121V13.632H112.017L113.233 18.56C116.305 14.848 119.974 12.992 124.241 12.992C125.777 12.992 127.206 13.2053 128.529 13.632C129.894 14.0587 130.918 14.6773 131.601 15.488Z" fill="#FAFAFA"/>
<path d="M60.2469 28.072C60.2469 36.3563 53.5312 43.072 45.2469 43.072C36.9627 43.072 30.2469 36.3563 30.2469 28.072C30.2469 19.7878 36.9627 13.072 45.2469 13.072C53.5312 13.072 60.2469 19.7878 60.2469 28.072Z" fill="#EDCE78"/>
</svg>
