<svg width="25" height="25" viewBox="0 0 25 25" fill="none" xmlns="http://www.w3.org/2000/svg">
<g clip-path="url(#clip0_64_263)">
<path d="M12.652 6.96802C11.704 6.96802 10.237 5.89002 8.692 5.92802C6.652 5.95502 4.782 7.11102 3.731 8.94202C1.614 12.617 3.185 18.045 5.25 21.032C6.263 22.486 7.458 24.122 9.042 24.071C10.562 24.006 11.132 23.084 12.977 23.084C14.808 23.084 15.327 24.071 16.937 24.032C18.574 24.006 19.613 22.552 20.613 21.084C21.769 19.396 22.249 17.759 22.275 17.669C22.236 17.656 19.093 16.448 19.055 12.812C19.029 9.77202 21.535 8.31802 21.652 8.25302C20.223 6.16302 18.029 5.92902 17.262 5.87702C15.262 5.72102 13.587 6.96802 12.652 6.96802ZM16.03 3.90202C16.873 2.89002 17.43 1.47502 17.275 0.0720215C16.068 0.124021 14.613 0.877021 13.743 1.89002C12.963 2.78602 12.289 4.22802 12.47 5.60402C13.808 5.70802 15.185 4.91602 16.029 3.90302" fill="#212121"/>
</g>
<defs>
<clipPath id="clip0_64_263">
<rect width="24" height="24" fill="white" transform="translate(0.5 0.0720215)"/>
</clipPath>
</defs>
</svg>
